<svg width="42" height="30" viewBox="0 0 42 30" fill="none" xmlns="http://www.w3.org/2000/svg">
<path fill-rule="evenodd" clip-rule="evenodd" d="M19.5649 14.3977C20.2692 14.5671 20.9594 14.8494 21.6355 15.2446C22.3116 15.6116 22.9173 16.0915 23.4526 16.6844C23.9878 17.249 24.4104 17.9124 24.7203 18.6746C25.0302 19.4368 25.1851 20.2838 25.1851 21.2154C25.1851 22.8528 24.847 24.2361 24.1709 25.3653C23.523 26.4663 22.6497 27.3697 21.551 28.0755C20.4805 28.753 19.241 29.247 17.8324 29.5576C16.452 29.8399 15.0294 29.981 13.5645 29.981H0V0H12.2968C13.5081 0 14.7899 0.0988072 16.1421 0.296421C17.5225 0.465805 18.7902 0.832805 19.9453 1.39742C21.1003 1.9338 22.0581 2.73838 22.8187 3.81115C23.5793 4.85568 23.9597 6.23899 23.9597 7.96106C23.9597 9.57021 23.5512 10.8971 22.7342 11.9416C21.9454 12.9861 20.889 13.7625 19.5649 14.2706V14.3977ZM9.38027 11.5282V7.14492H12.0979C13.1937 7.14492 14.5087 7.75858 14.5087 9.29274C14.5087 10.9146 13.2376 11.5282 12.0979 11.5282H9.38027ZM9.38027 18.0592V22.7931H12.3534C13.6002 22.7931 14.9909 22.1304 14.9909 20.3788C14.9909 18.7219 13.5523 18.0592 12.3534 18.0592H9.38027Z" fill="#585E63"/>
<circle opacity="0.2" cx="35.777" cy="24.3805" r="5.61973" fill="#585E63"/>
</svg>
