<svg width="160" height="160" viewBox="0 0 160 160" fill="none" xmlns="http://www.w3.org/2000/svg">
<path d="M11.9912 75.0292L15.5261 130.281L146.856 121.952L143.244 66.623L74.6974 27.6484L11.9912 75.0292Z" fill="#FFF1D4"/>
<path d="M32.7394 95.1267L31.0488 68.838L125.492 62.8008L126.338 76.5565L32.7394 95.1267Z" fill="#F0D6A2"/>
<path d="M27.3604 74.4178L27.8214 82.1363L54.0258 93.1409L104.744 89.9312L122.495 79.2323L121.804 68.457L27.3604 74.4178Z" fill="white"/>
<path d="M10.074 73.7537C13.9217 75.0099 17.7693 76.3399 21.543 77.7438C25.3166 79.1478 29.0903 80.6995 32.79 82.1773C36.4897 83.7291 40.2633 85.2808 43.889 86.9803C47.5887 88.6798 51.1404 90.5271 54.766 92.3744L54.3961 92.3005C58.4657 92.3005 62.5354 92.1527 66.605 91.8571C70.6746 91.5616 74.7443 91.1182 78.8139 90.6749C82.8836 90.2315 86.9532 89.7143 91.0229 89.3448L103.232 88.3103L102.418 88.532C104.194 87.4236 105.97 86.3153 107.745 85.2808C109.521 84.1724 111.297 83.1379 113.073 82.1034L118.474 78.9261L123.876 75.8227C127.502 73.7537 131.127 71.7586 134.753 69.7635C138.453 67.7685 142.078 65.8473 145.852 64L146 64.2956C142.596 66.734 139.193 69.0985 135.789 71.4631C132.311 73.8276 128.908 76.1182 125.43 78.335L120.176 81.734L114.923 85.0591C113.147 86.1675 111.371 87.2759 109.595 88.3103C107.819 89.4187 106.044 90.4532 104.268 91.4877L103.898 91.7094H103.528L91.2448 92.3005C87.1752 92.4483 83.1056 92.5222 79.0359 92.5222C74.9663 92.5961 70.8966 92.5961 66.827 92.8916C62.7573 93.1133 58.6877 93.4828 54.6181 94H54.4701L54.2481 93.9261C50.4744 92.5222 46.6268 91.1182 42.8531 89.6404C39.0794 88.1626 35.3798 86.4631 31.7541 84.8374C28.0544 83.1379 24.4287 81.4384 20.803 79.665C17.1774 77.8916 13.5517 76.0443 10 74.0493L10.074 73.7537Z" fill="#1F2533"/>
<path d="M78.7428 24.5205C78.0216 25.4807 66.9856 34.127 61.0691 38.9675L43.2437 53.1911C37.3272 57.9571 31.5624 62.8721 25.3425 67.3402C22.2325 69.5743 19.1225 71.7339 15.9367 73.8935C12.7509 76.0531 9.56508 78.0638 6.22756 80L6 79.7021C8.7307 77.0212 11.5373 74.4893 14.4197 71.9573C17.3021 69.4254 20.1845 67.0424 23.1427 64.6594C29.0592 59.8189 35.355 55.5741 41.4991 51.0315L59.9313 37.5526C66.1513 33.0844 72.2953 28.6163 78.4394 24.2226C78.4394 24.2226 79.464 23.5603 78.7428 24.5205Z" fill="#1F2533"/>
<path d="M12.3819 73C12.9928 78.2832 13.5274 83.6349 14.062 88.9181L15.5894 104.905C16.0477 110.257 16.8114 115.54 16.8878 120.891C16.9641 123.567 16.9641 126.243 16.8878 128.919C16.8114 131.595 17.4395 135.471 16.3532 136.947C16.2651 137.066 15.9713 136.947 15.9713 136.947C15.284 134.34 14.8257 131.664 14.4439 128.988C14.062 126.312 13.7565 123.705 13.4511 121.029C12.8401 115.746 12.9928 110.394 12.8401 105.042L12.3055 89.0553C12.2291 83.7035 12.0764 78.3518 12 73.0686L12.3819 73Z" fill="#1F2533"/>
<path d="M152 121.327L115.072 124.663L78.0697 127.754C65.7605 128.73 53.4513 130.113 41.067 130.683C34.9124 131.008 28.6828 131.252 22.5282 131.415C16.3736 131.577 2.52406 132.35 3.0126 131.817L3.98931 131.171C10.1439 130.276 16.2985 129.462 22.4531 128.812C28.6077 128.079 34.7623 127.51 40.9169 127.022C53.2261 125.883 65.6104 125.558 77.9196 124.825L114.922 122.792C114.922 122.792 147.5 116.5 152 121.002C152.09 121.092 152 121.327 152 121.327Z" fill="#1F2533"/>
<path d="M142.471 61.4172C142.942 62.3558 143.806 72.681 144.434 78.2466L146.24 95.1423C146.79 100.774 147.732 106.34 147.889 112.038C147.967 114.887 148.046 117.67 147.967 120.519C147.967 123.368 147.81 126.151 147.575 129C147.575 129 147.889 131.783 147.182 129C146.476 126.217 145.926 123.434 145.455 120.585C144.984 117.802 144.591 114.953 144.277 112.171C143.57 106.539 143.649 100.907 143.335 95.2748L142.55 78.3791C142.393 72.7472 142.157 67.1153 142 61.4172C142 61.4172 142 60.4785 142.471 61.4172Z" fill="#1F2533"/>
<path d="M68.0002 23.5019L89.7664 35.5032L111.319 47.1439C118.503 51.0473 125.83 54.672 132.801 58.924C136.286 61.0151 139.772 63.176 143.257 65.3368C146.671 67.5674 150.086 69.7979 153.429 72.1679L153.963 72.8003C154.64 74.066 145.818 69.0312 142.119 67.2188C138.42 65.4065 134.793 63.5245 131.236 61.5728C123.981 57.739 117.081 53.3476 110.039 49.235L88.9128 36.7579C88.9128 36.7579 68.5002 26.0017 66.5002 23.5019C66 22.0034 68.0002 23.5019 68.0002 23.5019Z" fill="#1F2533"/>
<path d="M27.6676 82.1361L26.8991 74.4176L26.8223 73.9591L27.2833 73.8827C35.1216 73.1949 43.0367 72.5071 50.875 71.8193L74.4667 70.0617C82.3049 69.4503 90.1432 68.6097 98.0583 68.1511C105.973 67.769 113.812 67.5398 121.727 67.6162H122.649V68.3804C122.726 71.9722 122.726 75.5639 122.649 79.1557H122.265C121.727 75.5639 121.343 72.0486 120.882 68.4568L121.804 69.221C113.965 70.2909 106.127 71.0551 98.212 71.6665C90.3737 72.2779 82.4586 72.4307 74.5435 72.8128L50.875 73.8827C42.9599 74.2648 35.1216 74.4941 27.2065 74.8762L27.5907 74.4176L28.0518 82.1361H27.6676Z" fill="#1F2533"/>
<path d="M126.261 76.6354C125.954 74.3428 125.646 72.0502 125.416 69.7575L125.031 66.3186L124.647 62.8797L125.569 63.6439C117.731 64.4845 109.893 65.1723 101.978 65.0959C98.0586 65.0959 94.0626 65.1723 90.1435 65.478C86.2243 65.7073 82.3052 66.1658 78.3861 66.6243C74.4669 67.0828 70.5478 67.4649 66.6286 67.847C62.7095 68.1527 58.7904 68.5348 54.7944 68.7641C46.9561 69.299 39.041 69.5283 31.1259 69.6047L31.8175 68.8405C31.8175 69.7575 31.7406 70.6746 31.7406 71.5152C31.6638 72.4323 31.6638 73.3493 31.587 74.1899H31.3564C31.2027 73.2729 31.049 72.4323 30.8953 71.5152C30.7417 70.5982 30.588 69.7575 30.4343 68.8405L30.3574 68.1527L31.1259 68.0763C38.9642 67.1592 46.8024 66.395 54.7175 65.9365C58.6367 65.7073 62.6327 65.5544 66.5518 65.4016C70.4709 65.2487 74.4669 65.0959 78.3861 65.0959C82.3052 65.0195 86.3012 64.943 90.2203 64.7138C94.1394 64.4845 98.0586 64.026 101.978 63.5675C109.816 62.4976 117.731 62.1919 125.569 62.0391H126.492V62.8797L126.568 66.3186L126.645 69.7575C126.645 72.0502 126.722 74.3428 126.645 76.7118L126.261 76.6354Z" fill="#1F2533"/>
<path d="M11.6065 134.104C14.9109 130.513 18.369 126.921 21.6733 123.329L31.8938 112.707C35.275 109.191 38.5026 105.447 42.1912 102.16C44.0355 100.556 45.8798 98.9508 47.8778 97.4224C49.7989 95.894 51.7969 94.3656 53.8717 93.0664L54.1023 93.2957C52.719 95.359 51.1053 97.2695 49.5684 99.1801C47.9546 101.091 46.3408 102.848 44.6502 104.682C41.269 108.274 37.4267 111.407 33.815 114.693L22.9029 124.628C19.2143 127.914 7.63995 140.169 11.0001 135C11.2303 134.646 11.6065 134.104 11.6065 134.104Z" fill="#1F2533"/>
<path d="M154.848 127.911C154.771 128.064 154.848 128.064 154.848 128.064L154.771 127.988L154.617 127.835L154.233 127.529L153.464 126.918L151.851 125.771L148.623 123.479L142.168 118.97L129.258 109.876C124.955 106.819 120.498 104.068 116.425 100.705C114.427 99.0242 112.352 97.343 110.431 95.5853C108.433 93.8276 106.512 91.9935 104.744 90.083L104.975 89.7773C107.357 90.9237 109.662 92.2228 111.968 93.5984C114.196 94.9739 116.425 96.4259 118.576 97.8779C122.957 100.782 126.876 104.297 131.025 107.583L143.321 117.518L149.392 122.562L152.389 125.16L153.849 126.459L154.54 127.147L154.924 127.529L155.078 127.682L155.155 127.758L155.232 127.835C155.232 127.911 155.309 127.911 155.232 128.064C155.155 128.217 154.848 127.911 154.848 127.911Z" fill="#1F2533"/>
<path d="M36.4274 100.934C37.58 101.622 38.1948 101.545 38.9633 100.399C39.6549 99.482 40.116 98.4121 40.5002 97.3422C40.8844 96.3488 40.8844 95.5081 40.2697 95.2024C39.5012 94.7439 38.8864 95.3553 38.5022 95.8902C38.1948 96.1959 38.0411 96.1959 37.8106 95.8902C36.9653 94.7439 36.1968 94.5911 35.0441 95.5845C34.6599 95.9666 34.4294 95.9666 34.0451 95.661C33.1998 95.126 32.3545 94.8203 31.4324 95.2789C31.0482 95.5081 30.5871 95.5081 30.2029 95.4317C29.3576 95.126 28.3586 95.3553 27.5901 96.0431C26.7448 96.3487 26.2069 97.113 25.8995 97.8772C25.5921 98.5649 25.2847 99.0999 24.7468 99.482C24.132 99.9405 23.8247 100.628 23.671 101.316C23.5173 102.539 22.7488 103.379 21.8267 104.144C20.674 105.214 19.4444 106.131 19.0602 107.812C18.676 109.264 19.5981 110.869 20.7508 111.556C21.9804 112.321 23.5941 112.091 24.67 111.022C25.0542 110.639 25.3616 110.257 25.669 109.875C26.13 109.264 26.5911 108.729 27.5133 108.958C27.9743 109.035 28.3586 108.805 28.6659 108.5C29.5112 107.735 30.2797 106.971 31.4324 106.666C31.5861 106.666 31.5861 106.513 31.7398 106.436C33.0461 104.831 34.7368 103.456 35.7357 101.545C35.8894 101.01 36.0431 100.705 36.4274 100.934Z" fill="white"/>
<path d="M139.401 107.584C138.479 107.049 137.941 106.209 137.634 105.139C137.48 105.139 137.326 105.062 137.096 104.986C135.175 105.215 135.251 103.381 135.175 101.547C135.098 101.318 135.021 101.089 134.944 100.783C134.099 100.324 132.869 100.095 133.484 98.1846C133.33 97.0383 133.484 96.1213 134.022 95.2042C134.944 93.7522 134.56 91.3832 133.33 90.619C131.947 89.8548 130.564 88.7085 129.104 88.7849C125.185 88.9377 121.342 88.632 117.5 89.3963C117.577 90.1605 117.731 90.6954 118.192 91.0011C119.805 92.4531 121.342 94.0579 122.802 95.5099C126.03 98.6431 129.257 102.006 132.408 105.139C135.021 107.814 137.634 110.565 140.323 113.163C141.015 113.774 141.399 113.622 141.322 112.475C141.245 111.405 140.938 110.641 140.4 109.953C140.016 109.342 139.401 109.113 139.324 108.043C139.555 107.737 139.478 107.661 139.401 107.584Z" fill="#F0D6A2"/>
<path d="M113.658 106.44C113.812 108.044 114.503 109.343 115.425 109.955C116.962 111.178 116.578 111.865 115.579 113.012C114.119 114.693 113.965 116.221 114.734 118.132C115.348 119.507 116.347 119.584 117.193 119.813C119.575 120.272 121.88 119.125 124.186 119.202C124.8 118.438 125.569 118.361 126.414 118.896C127.874 118.667 129.411 118.438 130.871 118.208C130.641 116.909 129.795 116.298 129.027 115.686C127.951 114.693 126.875 113.776 125.799 112.859C121.419 109.343 117.039 105.675 112.736 102.16C112.351 101.854 111.89 101.09 111.583 102.007C111.967 103.765 113.658 104.453 113.658 106.44Z" fill="#F0D6A2"/>
<path d="M56.1774 116.067C57.0227 115.99 57.1764 117.595 56.2542 117.595C51.874 117.595 47.8012 117.672 43.6515 117.442C42.9599 117.519 42.883 116.372 43.5747 116.296C47.7243 116.143 52.1045 115.838 56.1774 116.067Z" fill="#1F2533"/>
<path d="M54.1789 119.353C55.0242 119.277 55.1778 120.882 54.2557 120.729C48.3386 120.882 41.9604 120.347 36.1201 119.353C35.4285 119.124 35.5822 118.283 36.2738 118.207C42.2678 118.742 48.1849 119.048 54.1789 119.353Z" fill="#1F2533"/>
<path d="M99.5184 73.8069L100.287 77.8572L101.055 81.9075C101.286 83.283 101.824 84.5822 101.824 85.9578C101.901 87.3333 101.824 88.6325 101.67 90.0845L101.44 90.1609C100.825 89.7024 100.287 89.0146 99.9795 88.3268C99.5952 87.639 99.3647 86.9512 99.211 86.2635C98.7499 84.8879 98.9805 83.5123 98.9805 82.1367C98.9805 80.7612 98.9805 79.3856 98.9805 77.9336C99.0573 76.558 99.0573 75.1825 99.211 73.7305L99.5184 73.8069Z" fill="#1F2533"/>
<path d="M91.4496 76.1763C91.6033 77.399 91.6802 78.6982 91.9876 79.8445C92.1413 81.0672 92.295 82.2899 92.4486 83.4362C92.6023 84.659 93.1403 85.8053 93.1403 86.9516C93.2171 87.563 93.2171 88.0979 93.1403 88.7093C93.2171 89.3206 93.1403 89.8556 93.3708 90.4669L93.2171 90.6198C92.4486 90.4669 91.8339 89.8556 91.4496 89.2442C91.0654 88.6328 90.758 88.0215 90.5275 87.4101C90.0664 86.111 90.3738 84.8118 90.3738 83.5127C90.3738 82.2135 90.4507 80.9908 90.6812 79.768C90.8349 78.5453 91.0654 77.3226 91.2191 76.0234L91.4496 76.1763Z" fill="#1F2533"/>
<path d="M77.0029 76.9414C77.6177 78.0877 78.1556 79.3869 78.6167 80.686C79.0778 81.9852 79.462 83.2079 79.8462 84.5835C80.0768 85.959 80.6147 87.3346 80.3841 88.7102C80.2305 89.398 80.0768 90.0858 79.7694 90.85C79.3852 91.4613 78.9241 92.2255 78.1556 92.5312L78.0019 92.3784C78.1556 91.0028 78.0019 89.8565 77.9251 88.6338C77.7714 87.411 78.0019 86.1883 77.9251 84.8892C77.8482 83.59 77.7714 82.2909 77.6177 80.9917C77.464 79.6926 77.3103 78.3934 77.0029 77.0178V76.9414Z" fill="#1F2533"/>
<path d="M66.2437 78.928C66.6279 79.9979 66.9353 81.2206 67.2426 82.3669C67.55 83.4368 67.8574 84.6595 68.0879 85.8058C68.3185 87.0286 68.7796 88.0985 68.6259 89.3212C68.549 89.9326 68.4722 90.5439 68.3185 91.1553C68.2416 91.5374 68.088 91.7666 67.9343 92.0723C67.7806 92.378 67.55 92.6837 67.089 92.913L67.0121 92.6837C67.0121 92.1488 66.7047 91.6902 66.551 91.0789C66.3205 90.5439 66.2436 90.009 66.09 89.474C65.8594 88.3277 66.09 87.1814 66.0131 86.0351V82.4433V78.8516L66.2437 78.928Z" fill="#1F2533"/>
</svg>
