<svg width="36" height="36" viewBox="0 0 36 36" fill="none" xmlns="http://www.w3.org/2000/svg">
<path d="M6.45477 4.19226C6.1886 4.45843 5.92242 4.72461 5.65625 4.92424C5.92242 4.72461 6.12205 4.52498 6.38823 4.32535C6.38823 4.32535 6.45477 4.2588 6.45477 4.19226Z" fill="black"/>
<path d="M21.6931 35.3346C21.4269 35.4011 21.1607 35.4677 20.8945 35.5342C21.1607 35.5342 21.4269 35.4677 21.6931 35.3346Z" fill="black"/>
<path d="M35.0017 11.9779C35.0683 11.9779 35.0683 11.9779 35.0017 11.9779C34.1367 8.71724 32.0738 5.92242 29.2124 3.92611C27.8816 2.99451 26.2845 2.46216 24.9537 2.46216C24.1551 2.46216 23.4232 2.66179 22.8243 2.99451C21.2272 3.92611 20.4287 5.25698 20.4287 6.92057C20.4287 9.64885 22.0258 11.2459 24.4213 13.708C25.6856 14.9723 27.0831 16.4363 28.4805 18.233C30.7429 21.2274 31.2753 25.4196 29.9444 29.2126C29.3455 30.8762 28.4139 32.3402 27.2827 33.5379C27.2827 33.5379 27.2827 33.5379 27.2161 33.6045C30.0775 32.0074 32.2069 29.6784 33.5378 26.8836C36.1995 21.1609 34.2032 17.1683 33.072 14.8392C32.4065 13.5084 31.9407 12.6433 32.4065 11.9779C32.9389 11.1793 33.8705 11.1793 35.0017 11.9779Z" fill="#00A0DF"/>
<path d="M22.0259 25.5528C20.3623 22.9576 17.9002 22.026 15.3715 21.0278C12.8429 20.0297 10.3142 19.0981 8.1183 16.5029C5.92237 13.9742 5.0573 10.7136 5.52311 7.38642C5.65619 6.32173 5.98891 5.32358 6.38817 4.45851C6.38817 4.45851 6.38817 4.39197 6.45471 4.39197C6.122 4.52505 5.85582 4.72469 5.65619 4.92432C2.06285 8.31803 0 12.9761 0 18.0334C0 25.8855 5.25693 33.0056 12.8429 35.2681C13.5749 35.4678 14.3068 35.5343 15.1054 35.5343C17.634 35.5343 19.963 34.4031 21.3604 32.4733C22.0924 31.4751 22.4917 30.3439 22.6248 29.2792C22.8909 27.8818 22.6913 26.6175 22.0259 25.5528Z" fill="black"/>
<path d="M27.0165 19.2311C25.6857 17.5009 24.3548 16.1035 23.157 14.8392C20.6284 12.3105 18.6986 10.2477 18.6986 6.85397C18.6986 3.32717 21.2272 1.46396 23.6228 0.865065C23.4897 0.798521 23.3566 0.798521 23.2236 0.798521C21.56 0.332717 19.7633 0 18.0332 0C15.1052 0 12.7762 0.598891 10.5138 1.92976C8.85017 2.92791 7.58584 5.12384 7.25312 7.58595C6.98695 9.24954 6.98695 12.5102 9.44906 15.3715C11.3788 17.634 13.7744 18.5656 16.0369 19.4307C18.6986 20.4954 21.4934 21.5601 23.4897 24.6211C24.8206 26.6839 24.8206 29.6784 23.5563 32.1405C23.4897 32.3401 23.3566 32.4732 23.2901 32.6063C23.2901 32.6728 23.2236 32.6728 23.2236 32.7394C22.2254 34.3364 20.6284 35.5342 18.9648 35.9335C19.8298 35.8004 20.6949 35.6007 21.4934 35.3346C21.56 35.3346 21.6265 35.268 21.7596 35.268C21.8927 35.2015 21.9592 35.2015 22.0923 35.1349C22.2919 35.0684 22.4916 35.0019 22.6247 34.8688C22.7577 34.8022 22.8908 34.7357 22.9574 34.6691C23.2235 34.536 23.4897 34.3364 23.8224 34.2033C23.889 34.2033 23.889 34.1368 23.9555 34.1368C24.2882 33.9372 24.5544 33.7375 24.8206 33.4713L24.8871 33.4048C25.1533 33.2052 25.4195 32.939 25.6857 32.6728C25.7522 32.6063 25.8187 32.5397 25.8853 32.4732C26.0849 32.2736 26.218 32.0739 26.4176 31.8743C26.5507 31.7412 26.6838 31.5416 26.8169 31.4085C26.95 31.2089 27.0831 31.0758 27.2162 30.8762C27.2827 30.8096 27.3492 30.6765 27.4158 30.61C27.4158 30.61 27.4158 30.5434 27.4823 30.5434C27.8816 29.878 28.2143 29.2126 28.4805 28.4806C29.4121 25.4196 28.9463 21.8262 27.0165 19.2311Z" fill="#00A0DF"/>
</svg>
