<svg width="179" height="36" viewBox="0 0 179 36" fill="none" xmlns="http://www.w3.org/2000/svg">
<g clip-path="url(#clip0)">
<path d="M6.45477 4.19336C6.1886 4.45953 5.92242 4.72571 5.65625 4.92534C5.92242 4.72571 6.12205 4.52608 6.38823 4.32645C6.38823 4.32645 6.45477 4.2599 6.45477 4.19336Z" fill="black"/>
<path d="M21.6931 35.3359C21.4269 35.4025 21.1607 35.469 20.8945 35.5356C21.1607 35.5356 21.4269 35.469 21.6931 35.3359Z" fill="black"/>
<path d="M35.0017 11.9786C35.0683 11.9786 35.0683 11.9786 35.0017 11.9786C34.1367 8.71797 32.0738 5.92315 29.2124 3.92685C27.8816 2.99524 26.2845 2.46289 24.9537 2.46289C24.1551 2.46289 23.4232 2.66252 22.8243 2.99524C21.2272 3.92685 20.4287 5.25771 20.4287 6.9213C20.4287 9.64958 22.0258 11.2466 24.4213 13.7087C25.6856 14.9731 27.0831 16.437 28.4805 18.2337C30.7429 21.2281 31.2753 25.4204 29.9444 29.2134C29.3455 30.8769 28.4139 32.3409 27.2827 33.5387C27.2827 33.5387 27.2827 33.5387 27.2161 33.6052C30.0775 32.0082 32.2069 29.6792 33.5378 26.8843C36.1995 21.1616 34.2032 17.169 33.072 14.84C32.4065 13.5091 31.9407 12.644 32.4065 11.9786C32.9389 11.1801 33.8705 11.1801 35.0017 11.9786Z" fill="#00A0DF"/>
<path d="M22.0259 25.5534C20.3623 22.9582 17.9002 22.0266 15.3715 21.0284C12.8429 20.0303 10.3142 19.0987 8.1183 16.5035C5.92237 13.9748 5.0573 10.7142 5.52311 7.38703C5.65619 6.32234 5.98891 5.32419 6.38817 4.45912C6.38817 4.45912 6.38817 4.39258 6.45471 4.39258C6.122 4.52567 5.85582 4.7253 5.65619 4.92493C2.06285 8.31864 0 12.9767 0 18.034C0 25.8861 5.25693 33.0063 12.8429 35.2687C13.5749 35.4684 14.3068 35.5349 15.1054 35.5349C17.634 35.5349 19.963 34.4037 21.3604 32.4739C22.0924 31.4758 22.4917 30.3445 22.6248 29.2798C22.8909 27.8824 22.6913 26.6181 22.0259 25.5534Z" fill="black"/>
<path d="M27.0165 19.2311C25.6857 17.5009 24.3548 16.1035 23.157 14.8392C20.6284 12.3105 18.6986 10.2477 18.6986 6.85397C18.6986 3.32717 21.2272 1.46396 23.6228 0.865065C23.4897 0.798521 23.3566 0.798521 23.2236 0.798521C21.56 0.332717 19.7633 0 18.0332 0C15.1052 0 12.7762 0.598891 10.5138 1.92976C8.85017 2.92791 7.58584 5.12384 7.25312 7.58595C6.98695 9.24954 6.98695 12.5102 9.44906 15.3715C11.3788 17.634 13.7744 18.5656 16.0369 19.4307C18.6986 20.4954 21.4934 21.5601 23.4897 24.6211C24.8206 26.6839 24.8206 29.6784 23.5563 32.1405C23.4897 32.3401 23.3566 32.4732 23.2901 32.6063C23.2901 32.6728 23.2236 32.6728 23.2236 32.7394C22.2254 34.3364 20.6284 35.5342 18.9648 35.9335C19.8298 35.8004 20.6949 35.6007 21.4934 35.3346C21.56 35.3346 21.6265 35.268 21.7596 35.268C21.8927 35.2015 21.9592 35.2015 22.0923 35.1349C22.2919 35.0684 22.4916 35.0019 22.6247 34.8688C22.7577 34.8022 22.8908 34.7357 22.9574 34.6691C23.2235 34.536 23.4897 34.3364 23.8224 34.2033C23.889 34.2033 23.889 34.1368 23.9555 34.1368C24.2882 33.9372 24.5544 33.7375 24.8206 33.4713L24.8871 33.4048C25.1533 33.2052 25.4195 32.939 25.6857 32.6728C25.7522 32.6063 25.8187 32.5397 25.8853 32.4732C26.0849 32.2736 26.218 32.0739 26.4176 31.8743C26.5507 31.7412 26.6838 31.5416 26.8169 31.4085C26.95 31.2089 27.0831 31.0758 27.2162 30.8762C27.2827 30.8096 27.3492 30.6765 27.4158 30.61C27.4158 30.61 27.4158 30.5434 27.4823 30.5434C27.8816 29.878 28.2143 29.2126 28.4805 28.4806C29.4121 25.4196 28.9463 21.8262 27.0165 19.2311Z" fill="#00A0DF"/>
<path d="M53.1683 13.3081H47.5122V19.5632H43.9854V4.05859H47.5122V9.98096H53.1683V4.05859H56.6951V19.5632H53.1683V13.3081Z" fill="black"/>
<path d="M67.6744 4.05859H70.8685L77.3232 19.5632H73.5303L72.2659 16.3026H66.1439L64.8796 19.5632H61.2197L67.6744 4.05859ZM67.4083 12.9754H70.8685L69.1384 8.58355L67.4083 12.9754Z" fill="black"/>
<path d="M86.7067 17.6339C82.581 17.5673 79.7861 15.4379 79.7861 11.5784C79.7861 7.71889 82.581 5.5895 86.7067 5.52296V3.85938H90.2335V5.52296C94.2926 5.5895 97.154 7.78544 97.154 11.5784C97.154 15.4379 94.3592 17.6339 90.2335 17.6339V19.6967H86.7067V17.6339ZM86.7067 14.3732V8.71705C84.4442 8.78359 83.5791 10.0479 83.5791 11.5119C83.5791 13.3751 84.5773 14.3067 86.7067 14.3732ZM90.3 8.78359V14.4398C92.629 14.3732 93.4941 13.4416 93.4941 11.645C93.4275 10.1145 92.629 8.85013 90.3 8.78359Z" fill="black"/>
<path d="M100.48 4.05859H113.323V7.38577H108.665V19.5632H105.139V7.38577H100.48V4.05859Z" fill="black"/>
<path d="M125.102 3.79297C129.827 3.79297 133.353 6.85397 133.353 11.7782C133.353 16.5028 129.827 19.7634 125.102 19.7634C120.377 19.7634 116.851 16.7024 116.851 11.7782C116.851 7.31977 120.111 3.79297 125.102 3.79297ZM125.102 16.5028C128.03 16.5028 129.56 14.4399 129.56 11.7782C129.56 8.91681 127.564 7.0536 125.102 7.0536C122.507 7.0536 120.644 8.91681 120.644 11.7782C120.577 14.4399 122.573 16.5028 125.102 16.5028Z" fill="black"/>
<path d="M138.743 4.05859H147.593V7.38577H142.27V19.5632H138.743V4.05859Z" fill="#00A0DF"/>
<path d="M155.446 4.05859H158.64L165.095 19.5632H161.302L160.037 16.3026H153.915L152.651 19.5632H149.058L155.446 4.05859ZM155.18 12.9754H158.64L156.91 8.58355L155.18 12.9754Z" fill="#00A0DF"/>
<path d="M167.49 17.0353L169.42 14.6397C170.352 15.6378 171.616 16.5029 172.88 16.5029C173.812 16.5029 175.076 16.1036 175.076 14.8393C175.076 13.9077 174.344 13.2423 172.681 13.2423H171.283V9.9151H172.614C173.612 9.9151 174.544 9.4493 174.544 8.51769C174.544 7.51954 173.812 7.05374 172.814 7.05374C171.816 7.05374 170.884 7.51954 170.085 8.65078L168.023 6.25521C169.021 4.79126 171.017 3.72656 173.28 3.72656C176.074 3.72656 178.071 5.25706 178.071 8.11843C178.071 9.24967 177.538 10.514 176.141 11.4456V11.5121C178.004 12.111 178.67 13.4419 178.67 15.2386C178.67 18.0999 175.875 19.8301 173.08 19.8301C169.952 19.8301 168.355 18.233 167.49 17.0353Z" fill="#00A0DF"/>
<path d="M43.9854 28.7461H47.3791V29.7442H45.05V34.735H43.9854V28.7461Z" fill="black"/>
<path d="M49.3753 28.6797H50.3069L52.8356 34.6686H51.7043L51.1055 33.1381H48.5768L47.9114 34.7351H46.8467L49.3753 28.6797ZM48.9095 32.2065H50.6396L49.7746 30.0771L48.9095 32.2065Z" fill="black"/>
<path d="M53.168 33.8037L53.7669 33.0717C54.1661 33.471 54.6985 33.8037 55.1643 33.8037C55.7632 33.8037 56.2955 33.5375 56.2955 32.9386C56.2955 32.4728 55.9628 32.1401 55.2308 32.1401H54.6319V31.1419H55.2308C55.6966 31.1419 56.0959 30.8758 56.0959 30.3434C56.0959 29.8111 55.6966 29.6114 55.2308 29.6114C54.765 29.6114 54.3657 29.8111 54.033 30.2769L53.4341 29.5449C53.8334 29.0125 54.5654 28.6133 55.3639 28.6133C56.4286 28.6133 57.1606 29.2122 57.1606 30.2769C57.1606 30.7427 56.8944 31.275 56.3621 31.6077C57.094 31.8074 57.4268 32.3397 57.4268 33.0051C57.4268 34.1364 56.4286 34.8018 55.2974 34.8018C54.1661 34.8018 53.5007 34.2695 53.168 33.8037Z" fill="black"/>
<path d="M61.4195 28.6133C63.2162 28.6133 64.5471 29.8111 64.5471 31.6743C64.5471 33.471 63.2162 34.7353 61.4195 34.7353C59.6229 34.7353 58.292 33.5375 58.292 31.6743C58.292 30.0107 59.5563 28.6133 61.4195 28.6133ZM61.4195 33.8037C62.6839 33.8037 63.4158 32.8721 63.4158 31.6743C63.4158 30.41 62.5508 29.5449 61.4195 29.5449C60.2883 29.5449 59.4232 30.41 59.4232 31.6743C59.4232 32.9386 60.2883 33.8037 61.4195 33.8037Z" fill="black"/>
<path d="M69.4715 29.6778H66.8098V34.6686H65.7451V28.6797H70.5362V34.6686H69.4715V29.6778Z" fill="black"/>
<path d="M74.8619 28.6133C76.6586 28.6133 77.9895 29.8111 77.9895 31.6743C77.9895 33.471 76.6586 34.7353 74.8619 34.7353C73.0652 34.7353 71.7344 33.5375 71.7344 31.6743C71.7344 30.0107 72.9987 28.6133 74.8619 28.6133ZM74.8619 33.8037C76.1262 33.8037 76.8582 32.8721 76.8582 31.6743C76.8582 30.41 75.9932 29.5449 74.8619 29.5449C73.7307 29.5449 72.8656 30.41 72.8656 31.6743C72.8656 32.9386 73.7307 33.8037 74.8619 33.8037Z" fill="black"/>
<path d="M83.7779 34.1363C83.3786 34.5355 82.6466 34.8017 81.8481 34.8017C79.9849 34.8017 78.7871 33.6039 78.7871 31.7407C78.7871 30.0106 79.8518 28.6797 81.8481 28.6797C82.6466 28.6797 83.2455 28.9459 83.6448 29.2786L83.179 30.0771C82.8463 29.8109 82.447 29.6778 81.8481 29.6778C80.7169 29.6778 79.9183 30.4764 79.9183 31.8072C79.9183 33.0716 80.7834 33.9366 81.9812 33.9366C82.5135 33.9366 82.9793 33.8035 83.3786 33.4708L83.7779 34.1363Z" fill="black"/>
<path d="M84.0449 28.7461H88.9691V29.7442H87.0394V34.735H85.9747V29.7442H84.0449V28.7461Z" fill="black"/>
<path d="M91.1643 28.6797H92.0959L94.6245 34.6686H93.4933L92.8944 33.1381H90.3657L89.7668 34.6686H88.7021L91.1643 28.6797ZM90.6984 32.2065H92.4286L91.5635 30.0771L90.6984 32.2065Z" fill="black"/>
<path d="M98.9502 34.735H97.8855V32.2729C97.6193 32.4725 97.087 32.6722 96.4881 32.6722C95.5565 32.6722 94.6914 32.2064 94.6914 30.7424V28.7461H95.7561V30.4762C95.7561 31.4078 96.2219 31.7405 96.8208 31.7405C97.2866 31.7405 97.6859 31.5409 97.952 31.3413V28.7461H99.0167V34.735H98.9502Z" fill="black"/>
<path d="M102.41 28.6797H103.342L105.871 34.6686H104.739L104.14 33.1381H101.612L101.013 34.6686H99.9482L102.41 28.6797ZM101.945 32.2065H103.675L102.81 30.0771L101.945 32.2065Z" fill="black"/>
<path d="M110.263 29.6778H108.466L108.333 30.8091C108 34.2693 107.202 34.8682 106.004 34.6686V33.6039C106.47 33.6704 107.069 33.4708 107.335 29.8775L107.401 28.6797H111.194V34.6686H110.13V29.6778H110.263Z" fill="black"/>
<path d="M113.99 30.8089C114.256 30.7424 114.522 30.7424 114.655 30.7424C116.185 30.7424 116.917 31.4744 116.917 32.6722C116.917 33.9365 116.052 34.735 114.455 34.735C113.856 34.735 113.324 34.735 112.925 34.735V28.7461H113.99V30.8089ZM113.99 31.7405V33.6703C114.189 33.6703 114.389 33.6703 114.588 33.6703C115.387 33.6703 115.853 33.3376 115.853 32.6056C115.853 31.9402 115.387 31.6075 114.588 31.6075C114.455 31.7405 114.256 31.7405 113.99 31.7405Z" fill="black"/>
<path d="M121.975 32.1399H119.246V34.6686H118.182V28.6797H119.246V31.1418H121.975V28.6797H123.039V34.6686H121.975V32.1399Z" fill="black"/>
<path d="M126.433 28.6797H127.364L129.893 34.6686H128.762L128.163 33.1381H125.634L125.035 34.6686H123.971L126.433 28.6797ZM125.967 32.2065H127.697L126.832 30.0771L125.967 32.2065Z" fill="black"/>
<path d="M132.621 28.7461H133.686V31.6075L136.015 28.7461H137.279L134.817 31.5409L137.412 34.735H136.081L133.619 31.674V34.735H132.555V28.7461H132.621Z" fill="black"/>
<path d="M140.673 28.6133C142.47 28.6133 143.801 29.8111 143.801 31.6743C143.801 33.471 142.47 34.7353 140.673 34.7353C138.877 34.7353 137.546 33.5375 137.546 31.6743C137.546 30.0107 138.81 28.6133 140.673 28.6133ZM140.673 33.8037C141.938 33.8037 142.67 32.8721 142.67 31.6743C142.67 30.41 141.805 29.5449 140.673 29.5449C139.542 29.5449 138.677 30.41 138.677 31.6743C138.677 32.9386 139.542 33.8037 140.673 33.8037Z" fill="black"/>
<path d="M144.998 28.7461H146.063L148.126 31.5409L150.055 28.7461H151.053V34.735H149.989V30.4097L148.126 33.0714H147.992L146.063 30.4097V34.735H144.998V28.7461Z" fill="black"/>
<path d="M156.444 29.6778H153.782V34.6686H152.718V28.6797H157.509V34.6686H156.444V29.6778Z" fill="black"/>
<path d="M160.968 28.6797H161.9L164.428 34.6686H163.297L162.698 33.1381H160.17L159.571 34.6686H158.373L160.968 28.6797ZM160.502 32.2065H162.233L161.367 30.0771L160.502 32.2065Z" fill="black"/>
<path d="M169.087 32.1399H166.359V34.6686H165.294V28.6797H166.359V31.1418H169.087V28.6797H170.152V34.6686H169.087V32.1399Z" fill="black"/>
<path d="M171.948 28.7461H173.013V34.735H171.948V28.7461Z" fill="black"/>
<path d="M177.472 32.6722H176.607L175.276 34.735H174.078L175.609 32.4725C175.076 32.2064 174.544 31.674 174.544 30.8089C174.544 29.6777 175.276 28.7461 177.006 28.7461C177.405 28.7461 178.137 28.7461 178.47 28.7461V34.735H177.405V32.6722H177.472ZM177.472 31.674V29.7442C177.339 29.7442 177.006 29.7442 176.806 29.7442C176.141 29.7442 175.675 30.1435 175.675 30.7424C175.675 31.2747 176.074 31.6075 176.54 31.674H177.472Z" fill="black"/>
</g>
<defs>
<clipPath id="clip0">
<rect width="178.603" height="36" fill="white"/>
</clipPath>
</defs>
</svg>
