<?xml version="1.0" encoding="utf-8"?>
<!-- Generator: Adobe Illustrator 22.1.0, SVG Export Plug-In . SVG Version: 6.00 Build 0)  -->
<svg version="1.1" id="Слой_1" xmlns="http://www.w3.org/2000/svg" xmlns:xlink="http://www.w3.org/1999/xlink" x="0px" y="0px"
	 viewBox="0 0 200 200" style="enable-background:new 0 0 200 200;" xml:space="preserve">
<g>
	<rect width="8" height="56"/>
	<rect y="64" width="8" height="8"/>
	<rect y="80" width="8" height="32"/>
	<rect y="120" width="8" height="8"/>
	<rect y="144" width="8" height="56"/>
	<rect x="8" width="8" height="8"/>
	<rect x="8" y="48" width="8" height="8"/>
	<rect x="8" y="64" width="8" height="16"/>
	<rect x="8" y="88" width="8" height="8"/>
	<rect x="8" y="104" width="8" height="16"/>
	<rect x="8" y="128" width="8" height="8"/>
	<rect x="8" y="144" width="8" height="8"/>
	<rect x="8" y="192" width="8" height="8"/>
	<rect x="16" width="8" height="8"/>
	<rect x="16" y="16" width="8" height="24"/>
	<rect x="16" y="48" width="8" height="8"/>
	<rect x="16" y="64" width="8" height="8"/>
	<rect x="16" y="96" width="8" height="16"/>
	<rect x="16" y="144" width="8" height="8"/>
	<rect x="16" y="160" width="8" height="24"/>
	<rect x="16" y="192" width="8" height="8"/>
	<rect x="24" width="8" height="8"/>
	<rect x="24" y="16" width="8" height="24"/>
	<rect x="24" y="48" width="8" height="8"/>
	<rect x="24" y="72" width="8" height="24"/>
	<rect x="24" y="104" width="8" height="8"/>
	<rect x="24" y="120" width="8" height="8"/>
	<rect x="24" y="144" width="8" height="8"/>
	<rect x="24" y="160" width="8" height="24"/>
	<rect x="24" y="192" width="8" height="8"/>
	<rect x="32" width="8" height="8"/>
	<rect x="32" y="16" width="8" height="24"/>
	<rect x="32" y="48" width="8" height="8"/>
	<rect x="32" y="64" width="8" height="8"/>
	<rect x="32" y="88" width="8" height="8"/>
	<rect x="32" y="112" width="8" height="24"/>
	<rect x="32" y="144" width="8" height="8"/>
	<rect x="32" y="160" width="8" height="24"/>
	<rect x="32" y="192" width="8" height="8"/>
	<rect x="40" width="8" height="8"/>
	<rect x="40" y="48" width="8" height="8"/>
	<rect x="40" y="64" width="8" height="8"/>
	<rect x="40" y="96" width="8" height="24"/>
	<rect x="40" y="128" width="8" height="8"/>
	<rect x="40" y="144" width="8" height="8"/>
	<rect x="40" y="192" width="8" height="8"/>
	<rect x="48" width="8" height="56"/>
	<rect x="48" y="64" width="8" height="8"/>
	<rect x="48" y="80" width="8" height="8"/>
	<rect x="48" y="96" width="8" height="8"/>
	<rect x="48" y="112" width="8" height="8"/>
	<rect x="48" y="128" width="8" height="8"/>
	<rect x="48" y="144" width="8" height="56"/>
	<rect x="56" y="64" width="8" height="8"/>
	<rect x="56" y="88" width="8" height="16"/>
	<rect x="56" y="112" width="8" height="8"/>
	<rect x="56" y="128" width="8" height="8"/>
	<rect x="64" y="16" width="8" height="8"/>
	<rect x="64" y="48" width="8" height="56"/>
	<rect x="64" y="112" width="8" height="16"/>
	<rect x="64" y="136" width="8" height="32"/>
	<rect x="64" y="176" width="8" height="24"/>
	<rect x="72" y="8" width="8" height="8"/>
	<rect x="72" y="24" width="8" height="16"/>
	<rect x="72" y="72" width="8" height="8"/>
	<rect x="72" y="88" width="8" height="8"/>
	<rect x="72" y="120" width="8" height="8"/>
	<rect x="72" y="136" width="8" height="8"/>
	<rect x="72" y="152" width="8" height="32"/>
	<rect x="72" y="192" width="8" height="8"/>
	<rect x="80" width="8" height="8"/>
	<rect x="80" y="40" width="8" height="16"/>
	<rect x="80" y="80" width="8" height="32"/>
	<rect x="80" y="120" width="8" height="16"/>
	<rect x="80" y="144" width="8" height="16"/>
	<rect x="80" y="184" width="8" height="16"/>
	<rect x="88" y="16" width="8" height="8"/>
	<rect x="88" y="40" width="8" height="8"/>
	<rect x="88" y="56" width="8" height="8"/>
	<rect x="88" y="72" width="8" height="16"/>
	<rect x="88" y="96" width="8" height="16"/>
	<rect x="88" y="120" width="8" height="8"/>
	<rect x="88" y="136" width="8" height="16"/>
	<rect x="88" y="160" width="8" height="16"/>
	<rect x="88" y="184" width="8" height="8"/>
	<rect x="96" y="24" width="8" height="32"/>
	<rect x="96" y="64" width="8" height="32"/>
	<rect x="96" y="128" width="8" height="32"/>
	<rect x="96" y="192" width="8" height="8"/>
	<rect x="104" y="8" width="8" height="8"/>
	<rect x="104" y="24" width="8" height="16"/>
	<rect x="104" y="56" width="8" height="48"/>
	<rect x="104" y="112" width="8" height="32"/>
	<rect x="104" y="152" width="8" height="8"/>
	<rect x="104" y="176" width="8" height="8"/>
	<rect x="112" width="8" height="8"/>
	<rect x="112" y="24" width="8" height="8"/>
	<rect x="112" y="40" width="8" height="24"/>
	<rect x="112" y="80" width="8" height="8"/>
	<rect x="112" y="120" width="8" height="8"/>
	<rect x="112" y="136" width="8" height="8"/>
	<rect x="112" y="160" width="8" height="8"/>
	<rect x="120" y="8" width="8" height="8"/>
	<rect x="120" y="24" width="8" height="8"/>
	<rect x="120" y="40" width="8" height="8"/>
	<rect x="120" y="72" width="8" height="8"/>
	<rect x="120" y="88" width="8" height="8"/>
	<rect x="120" y="104" width="8" height="8"/>
	<rect x="120" y="136" width="8" height="8"/>
	<rect x="120" y="176" width="8" height="16"/>
	<rect x="128" y="8" width="8" height="8"/>
	<rect x="128" y="24" width="8" height="8"/>
	<rect x="128" y="40" width="8" height="16"/>
	<rect x="128" y="72" width="8" height="8"/>
	<rect x="128" y="96" width="8" height="16"/>
	<rect x="128" y="120" width="8" height="56"/>
	<rect x="128" y="184" width="8" height="16"/>
	<rect x="136" y="64" width="8" height="56"/>
	<rect x="136" y="128" width="8" height="8"/>
	<rect x="136" y="160" width="8" height="8"/>
	<rect x="136" y="192" width="8" height="8"/>
	<rect x="144" width="8" height="56"/>
	<rect x="144" y="64" width="8" height="16"/>
	<rect x="144" y="88" width="8" height="24"/>
	<rect x="144" y="128" width="8" height="8"/>
	<rect x="144" y="144" width="8" height="8"/>
	<rect x="144" y="160" width="8" height="8"/>
	<rect x="144" y="192" width="8" height="8"/>
	<rect x="152" width="8" height="8"/>
	<rect x="152" y="48" width="8" height="8"/>
	<rect x="152" y="72" width="8" height="8"/>
	<rect x="152" y="96" width="8" height="8"/>
	<rect x="152" y="112" width="8" height="8"/>
	<rect x="152" y="128" width="8" height="8"/>
	<rect x="152" y="160" width="8" height="16"/>
	<rect x="152" y="192" width="8" height="8"/>
	<rect x="160" width="8" height="8"/>
	<rect x="160" y="16" width="8" height="24"/>
	<rect x="160" y="48" width="8" height="8"/>
	<rect x="160" y="80" width="8" height="8"/>
	<rect x="160" y="120" width="8" height="72"/>
	<rect x="168" width="8" height="8"/>
	<rect x="168" y="16" width="8" height="24"/>
	<rect x="168" y="48" width="8" height="8"/>
	<rect x="168" y="96" width="8" height="16"/>
	<rect x="168" y="128" width="8" height="48"/>
	<rect x="168" y="184" width="8" height="8"/>
	<rect x="176" width="8" height="8"/>
	<rect x="176" y="16" width="8" height="24"/>
	<rect x="176" y="48" width="8" height="8"/>
	<rect x="176" y="64" width="8" height="8"/>
	<rect x="176" y="80" width="8" height="8"/>
	<rect x="176" y="112" width="8" height="8"/>
	<rect x="176" y="168" width="8" height="8"/>
	<rect x="184" width="8" height="8"/>
	<rect x="184" y="48" width="8" height="8"/>
	<rect x="184" y="80" width="8" height="24"/>
	<rect x="184" y="112" width="8" height="16"/>
	<rect x="184" y="136" width="8" height="32"/>
	<rect x="184" y="184" width="8" height="16"/>
	<rect x="192" width="8" height="56"/>
	<rect x="192" y="72" width="8" height="16"/>
	<rect x="192" y="96" width="8" height="24"/>
	<rect x="192" y="136" width="8" height="32"/>
	<rect x="192" y="176" width="8" height="8"/>
	<rect x="192" y="192" width="8" height="8"/>
</g>
</svg>
