<svg width="180" height="180" viewBox="0 0 180 180" fill="none" xmlns="http://www.w3.org/2000/svg">
<path d="M34.5734 127.875C34.5734 127.875 34.4234 136.425 47.1734 137.4C59.9234 138.375 127.798 138.9 134.023 137.4C140.248 135.9 141.523 131.4 141.373 126.9C141.223 122.4 100.873 54.1501 100.873 54.1501C100.873 54.1501 94.4984 42.9001 85.2734 49.7251C76.0484 56.5501 33.5234 135.975 33.5234 135.975" fill="#FFF1D4"/>
<path d="M34.5773 127.873C34.5773 127.873 34.4273 136.423 47.1773 137.398C59.9273 138.373 127.802 138.898 134.027 137.398C140.252 135.898 141.527 131.398 141.377 126.898C141.227 122.398 100.877 54.1482 100.877 54.1482C100.877 54.1482 94.5023 42.8982 85.2773 49.7232C76.0523 56.5482 33.5273 135.973 33.5273 135.973" fill="#FFF1D4"/>
<path d="M34.7258 127.949C34.8008 128.774 35.0258 129.524 35.3258 130.274C35.4758 130.649 35.7008 131.024 35.8508 131.324C36.0758 131.624 36.3008 131.999 36.5258 132.299C37.5008 133.574 38.8508 134.474 40.3508 135.149C41.7758 135.824 43.4258 136.124 45.0008 136.424C45.8258 136.499 46.6508 136.574 47.4008 136.649L49.8758 136.724C56.5508 136.874 63.2258 136.874 69.9008 136.874L110.026 136.949C116.701 137.024 123.376 137.099 130.051 136.874L131.326 136.799C131.776 136.799 132.151 136.799 132.526 136.724L133.726 136.574C134.101 136.499 134.476 136.349 134.851 136.274C136.351 135.824 137.776 134.999 138.751 133.874C139.276 133.274 139.651 132.599 139.951 131.924C140.251 131.174 140.476 130.424 140.551 129.674C140.701 128.849 140.701 128.099 140.701 127.274C140.701 127.049 140.701 126.824 140.626 126.674C140.551 126.524 140.551 126.374 140.476 126.149C140.326 125.774 140.176 125.399 140.026 125.024C138.676 122.024 137.176 119.024 135.601 116.099C134.026 113.174 132.376 110.249 130.726 107.324C127.426 101.474 123.976 95.7739 120.601 89.9989L99.9758 55.7239C99.5258 54.9739 99.1508 54.3739 98.7008 53.7739C98.2508 53.1739 97.7258 52.5739 97.2008 52.0489C96.1508 50.9989 94.8758 50.0989 93.6008 49.5739C92.3258 49.0489 90.9008 48.9739 89.5508 49.2739C88.8758 49.4239 88.2008 49.7239 87.6008 50.0239C87.3008 50.2489 87.0008 50.3989 86.7008 50.6239C86.4008 50.8489 86.1008 51.0739 85.8758 51.2989C85.3508 51.6739 84.8258 52.3489 84.3008 52.9489C83.7758 53.5489 83.3258 54.2239 82.8008 54.8239C81.8258 56.0989 80.8508 57.4489 79.9508 58.7989C78.0758 61.4989 76.2758 64.3489 74.4758 67.1239C67.3508 78.3739 60.6008 89.9239 53.8508 101.474L33.6008 136.124L33.3008 135.974C39.2258 123.974 45.4508 112.124 51.7508 100.349C58.1258 88.4989 64.7258 76.8739 71.7758 65.3989C73.5758 62.5489 75.3758 59.6989 77.3258 56.9239C78.3008 55.4989 79.2758 54.1489 80.3258 52.7989C81.3758 51.4489 82.4258 50.0989 83.9258 48.8239C84.6758 48.1489 85.4258 47.6989 86.2508 47.2489C87.0758 46.7989 87.9758 46.4989 88.9508 46.2739C90.9008 45.8239 93.0008 46.0489 94.8008 46.7989C96.6008 47.5489 98.1008 48.6739 99.3758 50.0239C99.9758 50.6989 100.576 51.3739 101.101 52.1239C101.626 52.8739 102.151 53.6989 102.526 54.3739C109.276 65.9239 115.801 77.6239 122.176 89.3989L131.776 107.024C133.351 109.949 135.001 112.874 136.576 115.874C138.151 118.874 139.726 121.799 141.076 124.874C141.226 125.249 141.376 125.699 141.526 126.074C141.676 126.449 141.826 127.049 141.751 127.424C141.751 128.249 141.751 129.149 141.601 130.049C141.376 131.774 140.776 133.499 139.651 134.924C138.526 136.349 136.876 137.324 135.226 137.924C134.776 138.074 134.401 138.224 133.951 138.299L132.676 138.524C132.226 138.599 131.776 138.674 131.401 138.674L130.126 138.824C126.751 139.124 123.451 139.274 120.076 139.424C116.701 139.574 113.401 139.724 110.026 139.724C103.351 139.874 96.6008 139.874 89.9258 139.799L79.9508 139.499L69.9008 139.274C66.5258 139.199 63.2258 139.049 59.8508 138.899C56.4758 138.749 53.1758 138.599 49.8008 138.374L47.2508 138.149C46.4258 138.074 45.5258 137.924 44.7008 137.774C43.0508 137.399 41.3258 136.949 39.8258 136.124C38.3258 135.299 36.9008 134.174 35.9258 132.749C35.6258 132.374 35.4758 131.999 35.2508 131.624C35.1008 131.249 34.8758 130.874 34.8008 130.424C34.5008 129.599 34.3508 128.774 34.4258 127.874L34.7258 127.949Z" fill="black"/>
<path d="M69.3729 44.9242L66.9729 42.3742C66.9729 42.3742 64.1979 40.1992 60.6729 42.3742C57.1479 44.5492 60.0729 54.1492 63.8229 55.1242C67.5729 56.0992 71.0979 55.5742 71.1729 53.0242C71.2479 50.4742 67.1229 41.1742 65.8479 39.8242" fill="#F0D6A2"/>
<path d="M69.2989 45C68.7739 44.7 68.2489 44.4 67.7989 44.025C67.2739 43.725 66.8239 43.35 66.3739 42.975L66.4489 43.05C66.1489 42.975 65.7739 42.825 65.3989 42.75C65.0239 42.675 64.6489 42.6 64.2739 42.675C63.5239 42.675 62.8489 42.9 62.1739 43.2C62.0239 43.275 61.8739 43.35 61.6489 43.425L61.3489 43.5C61.2739 43.575 61.2739 43.575 61.1989 43.575C61.0489 43.725 60.8239 43.875 60.6739 44.175C60.2989 44.7 60.0739 45.525 59.9239 46.35C59.7739 47.175 59.7739 48.075 59.9239 48.975C60.0739 49.875 60.3739 50.7 60.8239 51.525C61.2739 52.275 61.7989 53.025 62.4739 53.55C62.7739 53.775 63.1489 54 63.5239 54.15C63.6739 54.225 63.8239 54.225 63.9739 54.225L64.6489 54.3C65.5489 54.375 66.3739 54.375 67.1989 54.3C67.9489 54.225 68.7739 54.075 69.1489 53.7C69.3739 53.55 69.4489 53.4 69.4489 53.325C69.4489 53.175 69.5239 53.1 69.4489 52.8C69.3739 52.2 69.1489 51.3 68.9239 50.475C68.4739 48.75 67.9489 47.025 67.3489 45.225C66.8239 43.5 66.2989 41.625 65.6239 39.975L65.9989 39.75C66.8239 40.35 67.4239 41.175 67.9489 41.925C68.5489 42.675 68.9989 43.5 69.5239 44.325C70.4989 45.975 71.3239 47.7 71.9989 49.5C72.1489 49.95 72.2989 50.4 72.4489 50.925C72.5989 51.45 72.6739 51.9 72.7489 52.575C72.8239 53.175 72.6739 54.075 72.2989 54.75C71.9239 55.5 71.2489 56.025 70.6489 56.325C70.0489 56.625 69.4489 56.775 68.8489 56.85C68.2489 56.925 67.7239 56.925 67.1989 56.925C66.1489 56.85 65.0989 56.625 64.1989 56.325L63.5239 56.025C63.2239 55.875 62.9239 55.8 62.6989 55.575C62.2489 55.275 61.8739 54.825 61.4989 54.45C60.8239 53.625 60.3739 52.725 59.9989 51.9C59.6239 51 59.2489 50.1 58.9489 49.2C58.6489 48.3 58.3489 47.325 58.1239 46.35C57.9739 45.375 57.8989 44.25 58.3489 43.05C58.5739 42.45 58.9489 41.925 59.4739 41.475C59.6989 41.4 59.8489 41.25 59.9989 41.175L60.3739 40.95C60.5989 40.8 60.8989 40.725 61.1239 40.575C62.1739 40.125 63.3739 39.975 64.4989 40.2C65.0989 40.275 65.6239 40.425 66.0739 40.725C66.2989 40.8 66.5989 40.95 66.8239 41.1C67.0489 41.25 67.2739 41.4 67.4989 41.625L67.5739 41.7C67.9489 42.15 68.2489 42.675 68.5489 43.2C68.8489 43.725 69.1489 44.25 69.4489 44.775L69.2989 45Z" fill="black"/>
<path d="M83.625 96.6L85.35 100.275C85.35 100.275 87.6 103.725 92.325 102.6C96.975 101.55 97.35 73.575 93.6 71.1C89.85 68.625 85.725 67.875 84.675 70.65C83.625 73.425 84.75 101.475 85.65 103.5" fill="white"/>
<path d="M83.7016 96.5247C84.5266 97.6497 85.2016 98.8497 85.9516 99.9747L85.8766 99.8997C86.3266 100.425 87.0766 100.875 87.7516 101.175C88.4266 101.475 89.1766 101.625 89.9266 101.7C90.3016 101.7 90.6766 101.7 91.0516 101.625C91.2016 101.625 91.4266 101.55 91.5766 101.55C91.6516 101.55 91.7266 101.475 91.8766 101.475H92.0266H92.1016C92.1016 101.475 92.3266 101.325 92.4766 101.1C92.6266 100.875 92.7766 100.575 92.9266 100.2C93.5266 98.7747 93.8266 97.1247 94.1266 95.4747C94.4266 93.8247 94.7266 92.0997 95.0266 90.4497C95.5516 87.0747 95.8516 83.5497 95.5516 80.0997C95.4016 78.3747 95.1016 76.6497 94.6516 74.9997C94.4266 74.1747 94.1266 73.4247 93.7516 72.7497C93.6016 72.4497 93.3016 72.1497 93.1516 72.0747L92.7016 71.8497L92.1016 71.6247C90.6016 71.0247 89.0266 70.4247 87.6766 70.4997C87.0016 70.4997 86.5516 70.7247 86.4016 70.9497C86.3266 71.0247 86.2516 71.2497 86.1766 71.3997C86.1016 71.5497 86.1016 71.9997 86.0266 72.3747C85.8766 74.0247 85.8766 75.7497 85.8016 77.4747L85.7266 82.6497L85.6516 92.9997L85.5766 98.2497V100.875V102.15C85.5766 102.6 85.5766 103.05 85.6516 103.425L85.5016 103.5C85.1266 102.6 84.9766 101.775 84.8266 100.875C84.6766 99.9747 84.5266 99.1497 84.3766 98.2497C84.1516 96.5247 83.8516 94.7997 83.7016 92.9997C83.3266 89.4747 83.0266 86.0247 82.8766 82.4997C82.8016 80.7747 82.7266 78.9747 82.7266 77.2497C82.7266 75.4497 82.7266 73.7247 82.8766 71.8497C82.9516 71.3247 82.9516 70.9497 83.1016 70.2747C83.1766 69.8997 83.3266 69.5997 83.5516 69.2997C83.7016 68.9997 83.9266 68.6997 84.2266 68.4747C84.7516 67.9497 85.4266 67.6497 86.0266 67.4997C86.6266 67.3497 87.2266 67.2747 87.7516 67.3497C88.8766 67.4247 89.8516 67.7247 90.6766 68.0997C91.5766 68.4747 92.4016 68.9247 93.1516 69.4497C93.3766 69.5997 93.5266 69.7497 93.6766 69.8997L93.9766 70.1247L94.3516 70.4247C94.8766 70.8747 95.0266 71.3997 95.2516 71.8497C95.6266 72.7497 95.7766 73.6497 95.9266 74.5497C96.2266 76.3497 96.3016 78.0747 96.4516 79.8747C96.6016 83.3997 96.9016 86.8497 96.9766 90.4497C96.9766 92.2497 96.9766 93.9747 96.7516 95.7747C96.5266 97.5747 96.1516 99.3747 95.3266 101.175C95.1016 101.625 94.8766 102.075 94.5016 102.525C94.1266 102.975 93.6766 103.5 92.8516 103.725L92.7016 103.8H92.6266H92.4766C92.3266 103.8 92.2516 103.875 92.1016 103.875C91.8766 103.875 91.5766 103.95 91.3516 103.95C90.8266 103.95 90.3016 103.95 89.8516 103.875C88.8766 103.725 87.9016 103.35 87.0766 102.825C86.2516 102.225 85.5766 101.625 84.9766 100.725L84.7516 100.575C84.3016 99.2997 83.8516 98.0247 83.4766 96.6747L83.7016 96.5247Z" fill="black"/>
<path d="M136.725 72.0741L139.275 69.6741C139.275 69.6741 141.45 66.8991 139.275 63.3741C137.1 59.8491 127.5 62.7741 126.525 66.5241C125.55 70.2741 126.075 73.7991 128.625 73.8741C131.175 73.9491 140.475 69.8241 141.825 68.5491" fill="white"/>
<path d="M136.648 71.999C136.948 71.474 137.248 70.949 137.623 70.499C137.923 69.974 138.298 69.5239 138.673 69.0739L138.598 69.149C138.673 68.849 138.823 68.4739 138.898 68.0989C138.973 67.7239 139.048 67.3489 138.973 66.9739C138.973 66.2239 138.748 65.5489 138.448 64.8739C138.373 64.7239 138.298 64.5739 138.223 64.3489L138.073 64.1239C137.998 64.0489 137.998 64.0489 137.998 63.9739C137.848 63.8239 137.698 63.5989 137.398 63.4489C136.873 63.0739 136.048 62.8489 135.223 62.6989C134.398 62.5489 133.498 62.5489 132.598 62.6989C131.698 62.8489 130.873 63.1489 130.048 63.5989C129.298 64.0489 128.548 64.5739 128.023 65.2489C127.798 65.5489 127.573 65.924 127.423 66.299C127.348 66.449 127.348 66.5989 127.348 66.7489L127.273 67.424C127.198 68.324 127.198 69.1489 127.273 69.974C127.348 70.724 127.498 71.549 127.873 71.924C128.023 72.149 128.173 72.224 128.248 72.224C128.398 72.224 128.473 72.299 128.773 72.224C129.373 72.149 130.273 71.924 131.098 71.699C132.823 71.249 134.548 70.724 136.348 70.124C138.073 69.599 139.948 69.074 141.598 68.399L141.823 68.624C141.223 69.449 140.398 70.049 139.648 70.5739C138.898 71.174 138.073 71.624 137.248 72.149C135.598 73.124 133.873 73.949 132.073 74.624C131.623 74.774 131.173 74.924 130.648 75.074C130.123 75.224 129.673 75.299 128.998 75.374C128.398 75.449 127.498 75.299 126.823 74.924C126.073 74.549 125.548 73.874 125.248 73.274C124.948 72.674 124.798 72.074 124.723 71.474C124.648 70.874 124.648 70.3489 124.648 69.8239C124.723 68.7739 124.948 67.7239 125.248 66.8239L125.548 66.149C125.698 65.8489 125.773 65.5489 125.998 65.3239C126.298 64.8739 126.748 64.4989 127.123 64.1239C127.948 63.4489 128.848 62.9989 129.673 62.6239C130.573 62.2489 131.473 61.8739 132.373 61.5739C133.273 61.2739 134.248 60.9739 135.223 60.7489C136.198 60.5989 137.323 60.5239 138.523 60.9739C139.123 61.1989 139.648 61.5739 140.098 62.0989C140.173 62.2489 140.323 62.3989 140.398 62.5489L140.623 62.9239C140.773 63.1489 140.848 63.4489 140.998 63.6739C141.448 64.7239 141.598 65.924 141.373 67.049C141.298 67.649 141.148 68.174 140.848 68.624C140.773 68.849 140.623 69.149 140.473 69.374C140.323 69.599 140.173 69.824 139.948 70.049L139.873 70.124C139.423 70.499 138.898 70.799 138.373 71.099C137.848 71.399 137.323 71.699 136.798 71.999H136.648Z" fill="black"/>
<path d="M35.9242 96.3749L33.3742 93.9749C33.3742 93.9749 31.1992 91.1999 33.3742 87.6749C35.5492 84.1499 45.1492 87.0749 46.1242 90.8249C47.0992 94.5749 46.5742 98.0999 44.0242 98.1749C41.4742 98.2499 32.1742 94.1249 30.8242 92.8499" fill="#F0D6A2"/>
<path d="M35.775 96.4501C35.25 96.1501 34.725 95.8501 34.2 95.5501C33.675 95.2501 33.225 94.8751 32.7 94.5751V94.5001C32.475 94.2751 32.325 94.0501 32.175 93.8251C32.025 93.6001 31.875 93.3751 31.8 93.0751C31.575 92.5501 31.425 92.0251 31.275 91.5001C31.05 90.3751 31.275 89.1751 31.65 88.1251C31.725 87.8251 31.875 87.6001 32.025 87.3751L32.175 87.0001C32.25 86.8501 32.4 86.7001 32.475 86.5501C32.925 86.0251 33.525 85.6501 34.05 85.4251C35.25 84.9751 36.3 85.0501 37.35 85.2001C38.4 85.3501 39.3 85.6501 40.2 86.0251C41.1 86.3251 42 86.7001 42.9 87.0751C43.8 87.5251 44.625 87.9751 45.45 88.5751C45.825 88.8751 46.275 89.2501 46.575 89.7751C46.725 90.0001 46.875 90.3001 47.025 90.6001L47.325 91.2751C47.625 92.2501 47.85 93.2251 47.925 94.2751C47.925 94.8001 47.925 95.3251 47.85 95.9251C47.775 96.5251 47.625 97.1251 47.325 97.7251C47.025 98.2501 46.5 98.9251 45.75 99.3001C45.075 99.6751 44.175 99.8251 43.575 99.7501C42.9 99.6751 42.45 99.6001 41.925 99.4501C41.4 99.3001 40.95 99.1501 40.5 99.0001C38.7 98.3251 36.975 97.5001 35.325 96.5251C34.5 96.0001 33.675 95.5501 32.925 94.9501C32.175 94.3501 31.35 93.8251 30.75 93.0001L30.975 92.7751C32.7 93.4501 34.5 93.9001 36.225 94.5001C37.95 95.0251 39.75 95.5501 41.475 96.0751C42.3 96.3001 43.2 96.5251 43.8 96.6001C44.1 96.6751 44.175 96.6001 44.325 96.6001C44.4 96.6001 44.55 96.4501 44.7 96.3001C45 95.9251 45.225 95.1001 45.3 94.3501C45.375 93.5251 45.375 92.7001 45.3 91.8001L45.225 91.1251C45.225 90.9751 45.15 90.8251 45.15 90.6751C45.075 90.3001 44.85 90.0001 44.55 89.6251C44.025 88.9501 43.35 88.4251 42.525 87.9751C41.7 87.5251 40.875 87.2251 39.975 87.0751C39.075 86.9251 38.175 86.9251 37.35 87.0751C36.525 87.2251 35.7 87.4501 35.175 87.8251C34.875 87.9751 34.725 88.2001 34.575 88.3501C34.575 88.4251 34.5 88.4251 34.5 88.5001L34.35 88.7251C34.275 88.8751 34.125 89.0251 34.125 89.2501C33.825 89.9251 33.6 90.6001 33.6 91.3501C33.6 91.7251 33.675 92.1001 33.675 92.4751C33.75 92.8501 33.9 93.2251 33.975 93.5251L33.9 93.4501C34.275 93.9001 34.65 94.4251 34.95 94.8751C35.325 95.3251 35.625 95.8501 35.925 96.3751L35.775 96.4501Z" fill="black"/>
<path d="M45.9767 74.1758C45.9767 74.1758 50.9267 75.6758 53.0267 72.0758C55.1267 68.4758 53.8517 65.4758 49.5017 63.5258C45.1517 61.5758 44.1017 59.1008 41.7767 60.8258C39.4517 62.5508 37.8017 68.3258 41.7767 69.9008C45.7517 71.4758 52.8767 75.3758 52.8767 75.3758" fill="white"/>
<path d="M46.051 74.0261C47.101 74.0261 48.151 73.8761 49.051 73.6511C49.951 73.4261 50.701 72.9761 51.226 72.3761C51.376 72.2261 51.451 72.0761 51.601 71.9261L51.901 71.4011L52.201 70.8011C52.276 70.5761 52.351 70.4261 52.426 70.2011C52.651 69.3761 52.726 68.6261 52.576 67.8761C52.426 67.1261 52.051 66.3011 51.451 65.6261C50.851 64.8761 50.026 64.2761 49.051 63.8261C48.076 63.3011 47.176 62.7761 46.276 62.2511C45.826 61.9511 45.376 61.7261 44.926 61.5011C44.476 61.2761 44.026 61.1261 43.651 61.1261C43.276 61.1261 43.051 61.2011 42.751 61.4261C42.601 61.5761 42.451 61.6511 42.376 61.8011C42.226 61.9511 42.151 62.1011 42.001 62.2511C41.551 62.9261 41.176 63.8261 41.026 64.6511C40.876 65.4761 40.876 66.3761 41.101 66.9761C41.326 67.5761 41.701 68.0261 42.301 68.3261C42.376 68.4011 42.676 68.5511 42.901 68.6261C43.126 68.7011 43.426 68.8511 43.651 69.0011C44.101 69.2261 44.626 69.5261 45.076 69.7511C46.051 70.2761 46.951 70.8011 47.851 71.4011C49.651 72.6011 51.376 73.8011 53.026 75.2261L52.876 75.5261C50.776 75.0011 48.826 74.2511 46.801 73.5011C45.826 73.1261 44.851 72.7511 43.876 72.3761L42.451 71.8511L41.701 71.5511C41.476 71.4761 41.251 71.4011 40.876 71.1761C40.576 71.0261 40.201 70.8761 39.901 70.5761L39.451 70.2011C39.301 70.0511 39.226 69.9011 39.076 69.7511C38.551 69.1511 38.251 68.4761 38.101 67.7261C37.801 66.3011 37.951 65.0261 38.326 63.8261C38.701 62.6261 39.301 61.5011 40.201 60.6011C40.651 60.1511 41.251 59.7011 41.851 59.4761C42.451 59.1761 43.351 59.1011 44.026 59.3261C44.701 59.5511 45.151 59.9261 45.601 60.2261C46.051 60.6011 46.426 60.9011 46.876 61.2011C47.701 61.8011 48.601 62.3261 49.576 62.7761C50.551 63.1511 51.601 63.6011 52.576 64.2011C53.101 64.5011 53.551 64.8761 54.001 65.3261C54.451 65.7761 54.826 66.3011 55.051 66.9761C55.576 68.2511 55.426 69.7511 55.051 70.8761C54.976 71.1761 54.826 71.4761 54.676 71.7011C54.526 72.0011 54.376 72.2261 54.226 72.4511C54.001 72.7511 53.851 72.9761 53.626 73.2761C53.401 73.5011 53.176 73.7261 52.876 73.9511C51.826 74.7761 50.476 75.0761 49.276 75.0011C48.076 74.9261 47.026 74.6261 46.051 74.1011V74.0261Z" fill="black"/>
<path d="M121.947 49.1994C121.947 49.1994 123.447 44.2494 119.847 42.1494C116.247 40.0494 113.247 41.3244 111.297 45.6744C109.347 50.0244 106.872 51.0744 108.597 53.3994C110.322 55.7244 116.097 57.3744 117.672 53.3994C119.247 49.4244 123.147 42.2994 123.147 42.2994" fill="#F0D6A2"/>
<path d="M121.799 49.125C121.799 48.075 121.649 47.025 121.424 46.125C121.199 45.225 120.749 44.475 120.149 43.95C119.999 43.8 119.849 43.725 119.699 43.575L119.249 43.275L118.649 42.975C118.424 42.9 118.274 42.825 118.049 42.75C117.224 42.525 116.474 42.45 115.724 42.6C114.974 42.75 114.149 43.125 113.474 43.725C112.724 44.325 112.124 45.15 111.674 46.125C111.149 47.1 110.624 48 110.099 48.9C109.799 49.35 109.574 49.8 109.349 50.25C109.124 50.7 108.974 51.15 108.974 51.525C108.974 51.9 109.049 52.125 109.274 52.425C109.424 52.575 109.499 52.725 109.649 52.8C109.799 52.95 109.949 53.025 110.099 53.175C110.774 53.625 111.674 54 112.499 54.15C113.324 54.3 114.224 54.3 114.824 54.075C115.424 53.85 115.874 53.475 116.174 52.875C116.249 52.8 116.399 52.5 116.474 52.275C116.549 52.05 116.699 51.75 116.849 51.525C117.074 51.075 117.374 50.55 117.599 50.1C118.124 49.125 118.649 48.225 119.249 47.325C120.449 45.525 121.649 43.8 123.074 42.15L123.374 42.3C122.849 44.4 122.099 46.35 121.349 48.375C120.974 49.35 120.599 50.325 120.224 51.3L119.699 52.725L119.399 53.475C119.324 53.7 119.249 53.925 119.024 54.3C118.874 54.6 118.724 54.975 118.424 55.275L118.049 55.725C117.899 55.875 117.749 55.95 117.599 56.1C116.999 56.625 116.324 56.925 115.574 57.075C114.149 57.375 112.874 57.225 111.674 56.85C110.474 56.475 109.349 55.875 108.449 54.975C107.999 54.525 107.549 53.925 107.324 53.325C107.024 52.725 106.949 51.825 107.174 51.15C107.399 50.475 107.774 50.025 108.074 49.575C108.449 49.125 108.749 48.75 109.049 48.3C109.649 47.475 110.174 46.575 110.624 45.6C110.999 44.625 111.449 43.575 112.049 42.6C112.349 42.075 112.724 41.625 113.174 41.175C113.624 40.725 114.149 40.35 114.824 40.125C116.099 39.6 117.599 39.75 118.724 40.125C119.024 40.2 119.324 40.35 119.549 40.5C119.849 40.65 120.074 40.8 120.299 40.95C120.599 41.175 120.824 41.325 121.124 41.55C121.349 41.775 121.574 42 121.799 42.3C122.624 43.35 122.924 44.7 122.849 45.9C122.774 47.1 122.474 48.15 121.949 49.125H121.799Z" fill="black"/>
<path d="M136.048 97.3509C136.048 97.3509 131.473 94.9509 132.523 90.9009C133.573 86.9259 136.573 85.6509 141.073 87.3009C145.498 88.9509 148.048 87.9759 148.423 90.9009C148.873 93.7509 145.948 99.0009 141.973 97.3509C137.998 95.7009 130.273 93.3759 130.273 93.3759" fill="#F0D6A2"/>
<path d="M135.973 97.425C134.848 97.125 133.873 96.6 133.048 95.775C132.148 95.025 131.473 93.825 131.248 92.475C131.173 92.175 131.173 91.8 131.173 91.5C131.173 91.2 131.248 90.825 131.323 90.525C131.398 90.225 131.473 89.925 131.548 89.625C131.623 89.325 131.773 89.025 131.923 88.725C132.448 87.6 133.348 86.475 134.698 85.95C135.298 85.65 135.973 85.575 136.648 85.5C137.248 85.5 137.923 85.575 138.448 85.725C139.573 85.95 140.623 86.475 141.598 86.85C142.573 87.225 143.548 87.525 144.598 87.675C145.123 87.75 145.648 87.825 146.173 87.9C146.698 87.975 147.298 88.05 147.973 88.35C148.648 88.65 149.173 89.325 149.398 90C149.623 90.6 149.773 91.35 149.773 91.95C149.773 93.225 149.398 94.425 148.798 95.55C148.198 96.675 147.373 97.725 146.173 98.475C145.573 98.85 144.823 99.15 144.073 99.15C143.848 99.15 143.698 99.15 143.473 99.15L142.873 99.075C142.498 99.075 142.123 98.925 141.823 98.775C141.448 98.625 141.223 98.55 140.998 98.475L140.248 98.25L138.823 97.65C137.848 97.2 136.873 96.825 135.973 96.375C134.023 95.475 132.148 94.575 130.273 93.525L130.348 93.225C132.523 93.375 134.623 93.675 136.723 94.125C137.773 94.35 138.823 94.575 139.798 94.875C140.323 95.025 140.848 95.175 141.373 95.325C141.598 95.4 141.898 95.475 142.123 95.625C142.348 95.7 142.648 95.85 142.798 95.85C143.398 96.075 143.923 96 144.598 95.775C145.198 95.475 145.798 94.875 146.323 94.2C146.773 93.525 147.148 92.625 147.298 91.8C147.373 91.575 147.373 91.425 147.373 91.2C147.373 90.975 147.373 90.825 147.373 90.6C147.298 90.225 147.223 90 146.998 89.775C146.773 89.55 146.323 89.325 145.798 89.175C145.348 89.025 144.823 88.875 144.298 88.725C143.248 88.425 142.198 88.2 141.223 87.825C140.248 87.525 139.198 87.375 138.223 87.45C137.248 87.525 136.423 87.825 135.823 88.2C135.223 88.575 134.773 89.175 134.323 89.925C134.248 90.075 134.173 90.3 134.023 90.525L133.798 91.125L133.648 91.725C133.648 91.95 133.573 92.1 133.573 92.325C133.573 93.075 133.798 93.975 134.248 94.8C134.698 95.625 135.373 96.45 136.123 97.2L135.973 97.425Z" fill="black"/>
<path d="M94.1991 113.552C94.1991 113.552 95.9241 109.877 92.3991 109.652C88.8741 109.427 84.7491 110.927 84.8991 114.902C85.0491 118.877 83.6241 120.602 85.7991 121.727C87.9741 122.852 95.2491 122.477 95.0241 118.952C94.7241 115.352 94.9491 108.602 94.9491 108.602" fill="white"/>
<path d="M94.0509 113.477C94.1259 112.577 94.0509 111.602 93.6759 111.152C93.5259 110.927 93.3009 110.927 93.0759 110.852C92.7759 110.777 92.5509 110.852 92.1009 110.852C90.4509 110.927 88.8759 111.377 87.5259 111.977C86.8509 112.277 86.2509 112.727 85.8009 113.402C85.5759 113.702 85.4259 114.152 85.4259 114.527C85.3509 114.902 85.3509 115.427 85.3509 115.877C85.3509 116.852 85.2009 117.752 85.2009 118.652C85.2009 119.102 85.2009 119.552 85.2759 119.927C85.3509 120.302 85.5009 120.452 85.7259 120.527C85.8009 120.602 85.9509 120.602 86.1009 120.677C86.2509 120.752 86.4009 120.752 86.5509 120.752C86.9259 120.827 87.3009 120.827 87.6759 120.827C88.5009 120.827 89.3259 120.827 90.1509 120.677C90.9759 120.527 91.7259 120.302 92.3259 120.002C92.6259 119.852 92.8509 119.702 93.0009 119.552C93.1509 119.402 93.2259 119.327 93.2259 119.177C93.2259 119.102 93.2259 119.027 93.3009 118.952V118.277C93.3009 117.827 93.3009 117.302 93.3759 116.852C93.3759 115.877 93.5259 114.977 93.6009 114.077C93.8259 112.202 94.1259 110.402 94.7259 108.527H95.0259C95.4759 110.402 95.7009 112.202 95.9259 114.077C96.0009 114.977 96.1509 115.877 96.2259 116.777L96.3759 118.127L96.4509 118.802C96.4509 119.177 96.4509 119.552 96.3759 119.927C96.2259 120.752 95.7759 121.427 95.2509 121.877C94.7259 122.402 94.2009 122.702 93.6759 122.927C92.6259 123.377 91.5759 123.527 90.5259 123.602C89.4759 123.677 88.5009 123.602 87.4509 123.452C86.9259 123.377 86.4009 123.227 85.8759 123.002C85.6509 122.927 85.2759 122.777 85.0509 122.552C84.8259 122.402 84.5259 122.177 84.3759 121.877C83.9259 121.352 83.7009 120.527 83.7759 120.002C83.8509 119.402 83.9259 118.952 84.0009 118.502C84.2259 117.602 84.3759 116.702 84.3759 115.802C84.3759 115.352 84.3009 114.977 84.3009 114.377C84.3009 113.852 84.3009 113.327 84.4509 112.802C84.6759 111.752 85.2759 110.702 86.1759 109.952C87.0009 109.202 88.0509 108.752 89.1009 108.527C90.1509 108.302 91.2009 108.302 92.1759 108.377C92.7009 108.452 93.3009 108.527 93.9009 108.827C94.5009 109.127 95.0259 109.802 95.1759 110.402C95.3259 111.077 95.2509 111.677 95.0259 112.127C94.8759 112.652 94.5759 113.027 94.2759 113.477H94.0509Z" fill="black"/>
</svg>
